<?xml version="1.0" encoding="iso-8859-1"?>
<!-- Generator: Adobe Illustrator 19.0.0, SVG Export Plug-In . SVG Version: 6.00 Build 0)  -->
<svg version="1.1" id="Layer_1" xmlns="http://www.w3.org/2000/svg" xmlns:xlink="http://www.w3.org/1999/xlink" x="0px" y="0px"
	 viewBox="0 0 512 512" style="enable-background:new 0 0 512 512; fill:#f1c500" xml:space="preserve">
<g>
	<g>
		<path d="M413.365,340.355c19.547-11.938,32.624-33.472,32.624-58.005V257.68c0.063-0.391,0.103-0.786,0.103-1.187v-26.036
			c0-13.752-4.115-26.556-11.16-37.268c2.102-0.91,4.177-1.877,6.197-2.947l16.799,12.623c1.342,1.008,2.924,1.502,4.499,1.502
			c1.929,0,3.848-0.742,5.3-2.195l22.185-22.184c2.638-2.638,2.933-6.816,0.691-9.799l-12.622-16.798
			c2.609-4.921,4.744-10.073,6.38-15.4l20.803-2.954c3.693-0.524,6.438-3.687,6.438-7.418V96.248c0-3.731-2.745-6.893-6.439-7.418
			l-20.802-2.953c-1.636-5.326-3.77-10.479-6.38-15.4l12.622-16.798c2.241-2.983,1.946-7.16-0.691-9.798l-22.184-22.185
			c-2.64-2.639-6.817-2.933-9.798-0.692l-16.798,12.622c-4.923-2.61-10.074-4.745-15.4-6.38l-2.953-20.803
			c-0.524-3.694-3.686-6.439-7.418-6.439h-31.373c-3.73,0-6.893,2.745-7.418,6.439l-2.953,20.804
			c-5.326,1.635-10.478,3.77-15.399,6.379l-16.799-12.622c-2.98-2.242-7.158-1.946-9.798,0.692L309.434,43.88
			c-2.638,2.638-2.933,6.816-0.691,9.799l12.622,16.798c-2.609,4.922-4.743,10.073-6.379,15.399l-20.803,2.953
			c-3.694,0.524-6.439,3.687-6.439,7.418v31.373c0,3.731,2.745,6.893,6.438,7.418l20.804,2.954
			c1.636,5.327,3.769,10.479,6.379,15.401l-12.622,16.798c-2.241,2.983-1.946,7.16,0.691,9.798l12.339,12.339
			c-7.394,10.883-11.721,24.01-11.721,38.13v12.357l-13.346-1.894c-2.771-9.7-6.638-19.032-11.536-27.847l21.091-28.07
			c2.241-2.983,1.946-7.159-0.691-9.799l-34.297-34.297c-2.64-2.639-6.818-2.933-9.798-0.692l-28.071,21.091
			c-8.816-4.898-18.146-8.763-27.846-11.536l-4.934-34.762c-0.524-3.694-3.687-6.439-7.418-6.439h-48.504
			c-3.731,0-6.893,2.745-7.418,6.439l-4.934,34.762c-9.7,2.772-19.032,6.638-27.846,11.536l-28.07-21.091
			c-2.983-2.242-7.159-1.946-9.798,0.692l-34.297,34.297c-2.638,2.638-2.934,6.816-0.692,9.799l21.091,28.071
			c-4.898,8.815-8.763,18.146-11.535,27.846l-34.762,4.934C2.745,246.378,0,249.541,0,253.272v48.504
			c0,3.731,2.745,6.894,6.439,7.418l34.762,4.934c2.772,9.7,6.638,19.031,11.535,27.846l-21.091,28.07
			c-2.242,2.983-1.946,7.16,0.692,9.799l34.297,34.298c2.638,2.639,6.815,2.932,9.799,0.692l28.07-21.091
			c8.816,4.898,18.148,8.763,27.846,11.535l4.934,34.762c0.524,3.694,3.687,6.439,7.418,6.439h48.504
			c3.731,0,6.894-2.745,7.418-6.439l4.934-34.761c9.701-2.772,19.031-6.638,27.846-11.536l23.433,17.607
			c-8.117,16.463-12.693,34.648-12.693,53.577v39.579c0,4.138,3.354,7.492,7.492,7.492h56.777c4.139,0,7.492-3.354,7.492-7.492
			c0-4.138-3.353-7.492-7.492-7.492h-49.285v-32.087c0-18.662,4.978-36.813,14.361-53.166c0.132-0.186,0.267-0.371,0.382-0.568
			c4.576-7.875,10.063-15.19,16.387-21.88c0.102-0.108,0.202-0.218,0.305-0.326c1.156-1.214,2.344-2.403,3.554-3.575
			c0.155-0.151,0.309-0.302,0.465-0.452c1.242-1.189,2.511-2.355,3.81-3.5c0.095-0.084,0.189-0.168,0.284-0.252
			c1.314-1.151,2.658-2.278,4.029-3.381c12.184-9.802,26.118-17.25,40.811-21.935l12.128,23.564l-16.213,70.382
			c-0.606,2.631,0.251,5.385,2.243,7.208l31.342,28.686c1.432,1.311,3.245,1.965,5.059,1.965c1.813,0,3.627-0.655,5.058-1.965
			l31.343-28.686c1.992-1.823,2.849-4.577,2.243-7.208L400.5,379.453l12.128-23.564c17.894,5.706,34.667,15.503,48.518,28.663
			c23.13,21.976,35.869,50.52,35.869,80.373v32.087h-163.63c-4.139,0-7.492,3.354-7.492,7.492s3.353,7.492,7.492,7.492h171.123
			c4.139,0,7.492-3.354,7.492-7.492v-39.579C512,407.176,469.485,356.317,413.365,340.355z M431.005,248.281
			c-24.091-4.536-33.845-29.037-34.278-30.159c-1.04-2.743-3.584-4.626-6.51-4.821c-2.923-0.201-5.697,1.337-7.09,3.918
			c-0.162,0.3-15.839,28.431-57.989,31.513v-18.38c0-12.608,4.438-24.196,11.825-33.298c0.18-0.176,0.353-0.361,0.516-0.555
			c7.59-9.074,17.787-15.251,28.998-17.785c0.039-0.009,0.079-0.018,0.118-0.027c0.846-0.189,1.699-0.354,2.556-0.5
			c0.109-0.019,0.216-0.04,0.325-0.058c0.788-0.131,1.581-0.237,2.377-0.331c0.167-0.02,0.332-0.046,0.498-0.064
			c0.757-0.083,1.519-0.14,2.283-0.19c0.195-0.013,0.389-0.034,0.584-0.045c0.947-0.051,1.897-0.079,2.851-0.079
			c14.781,0.001,29.024,6.319,39.077,17.336c0.124,0.136,0.263,0.251,0.395,0.376c8.365,9.364,13.464,21.706,13.464,35.221V248.281z
			 M302.727,121.119v-18.366l19.224-2.729c3.032-0.431,5.497-2.663,6.225-5.638c1.779-7.271,4.649-14.2,8.532-20.594
			c1.589-2.618,1.425-5.941-0.415-8.389l-11.665-15.525l12.987-12.987l15.526,11.665c2.448,1.839,5.769,2.004,8.388,0.415
			c6.395-3.883,13.324-6.753,20.592-8.531c2.975-0.727,5.207-3.193,5.639-6.224l2.729-19.225h18.366l2.729,19.225
			c0.432,3.033,2.663,5.497,5.639,6.224c7.268,1.778,14.198,4.648,20.593,8.531c2.619,1.591,5.942,1.425,8.388-0.415l15.525-11.665
			l12.987,12.987l-11.664,15.525c-1.84,2.449-2.004,5.771-0.414,8.389c3.883,6.393,6.753,13.322,8.531,20.593
			c0.728,2.976,3.192,5.207,6.225,5.639l19.224,2.729v18.366l-19.225,2.729c-3.032,0.431-5.496,2.663-6.223,5.638
			c-1.778,7.271-4.648,14.2-8.531,20.593c-1.59,2.618-1.426,5.941,0.414,8.389l11.665,15.525l-12.987,12.987l-15.524-11.666
			c-1.328-0.998-2.912-1.502-4.502-1.502c-1.343,0-2.688,0.36-3.888,1.088c-4.103,2.49-8.46,4.574-12.996,6.218
			c-10.719-10.162-24.722-16.883-40.242-18.363c-0.181-0.018-0.363-0.025-0.543-0.041c-0.879-0.077-1.759-0.15-2.648-0.193
			c-1.103-0.055-2.209-0.084-3.317-0.084c-1.12,0-2.237,0.03-3.348,0.085c-0.562,0.027-1.119,0.08-1.678,0.121
			c-0.531,0.039-1.064,0.07-1.593,0.122c-0.753,0.073-1.499,0.172-2.246,0.27c-0.316,0.042-0.633,0.075-0.947,0.121
			c-0.883,0.128-1.757,0.282-2.629,0.444c-0.164,0.031-0.329,0.057-0.492,0.088c-0.985,0.191-1.96,0.406-2.929,0.638
			c-0.041,0.01-0.083,0.019-0.124,0.029c-11.628,2.813-22.092,8.617-30.54,16.554l-6.915-6.915l11.665-15.525
			c1.84-2.448,2.004-5.771,0.415-8.389c-3.883-6.393-6.753-13.323-8.532-20.594c-0.728-2.975-3.193-5.206-6.223-5.638
			L302.727,121.119z M272.696,386.624c-0.377,0.464-0.746,0.93-1.116,1.397c-0.367,0.465-0.728,0.933-1.089,1.403
			c-1.7,2.21-3.327,4.47-4.883,6.778c-0.028,0.042-0.056,0.083-0.084,0.125c-0.417,0.622-0.845,1.237-1.253,1.866l-25.836-19.414
			c-2.448-1.84-5.772-2.005-8.389-0.415c-10.243,6.219-21.342,10.817-32.989,13.666c-2.975,0.727-5.207,3.193-5.638,6.224
			l-4.718,33.237h-35.497l-4.718-33.237c-0.431-3.032-2.663-5.497-5.639-6.224c-11.646-2.848-22.745-7.446-32.989-13.665
			c-2.617-1.59-5.94-1.427-8.389,0.415l-26.84,20.167l-25.101-25.101l20.168-26.84c1.84-2.448,2.004-5.771,0.414-8.389
			c-6.219-10.244-10.817-21.343-13.665-32.989c-0.727-2.975-3.193-5.207-6.224-5.639l-33.237-4.717v-35.496l33.238-4.718
			c3.032-0.431,5.497-2.663,6.224-5.639c2.848-11.647,7.446-22.746,13.665-32.989c1.589-2.618,1.425-5.94-0.414-8.389l-20.168-26.84
			l25.101-25.1l26.84,20.167c2.448,1.839,5.771,2.003,8.389,0.415c10.243-6.22,21.343-10.817,32.989-13.666
			c2.975-0.727,5.207-3.193,5.638-6.224l4.718-33.237h35.497l4.718,33.237c0.431,3.032,2.663,5.497,5.638,6.224
			c11.648,2.849,22.747,7.447,32.989,13.666c2.619,1.59,5.941,1.425,8.389-0.415l26.84-20.167l25.099,25.1l-20.167,26.84
			c-1.84,2.449-2.004,5.771-0.414,8.389c6.22,10.243,10.817,21.341,13.665,32.988c0.727,2.976,3.192,5.207,6.224,5.639l20.471,2.906
			v24.387v0.001c0,1.208,0.034,2.408,0.097,3.601c0.013,0.249,0.041,0.494,0.057,0.742c0.061,0.96,0.132,1.918,0.233,2.867
			c0.023,0.216,0.057,0.43,0.082,0.644c0.116,1,0.247,1.994,0.406,2.98c0.022,0.135,0.05,0.269,0.072,0.404
			c0.182,1.09,0.389,2.17,0.622,3.242c0.002,0.01,0.004,0.021,0.006,0.031l-22.046,3.129c-3.033,0.431-5.498,2.664-6.224,5.639
			c-2.848,11.645-7.445,22.745-13.666,32.989c-1.589,2.618-1.425,5.94,0.415,8.389l17.741,23.612
			C282.429,375.555,277.324,380.91,272.696,386.624z M299.643,361.236l-14.474-19.262c4.898-8.816,8.764-18.147,11.536-27.846
			l19.944-2.831c5.698,12.043,14.828,22.156,26.13,29.058C327.132,344.805,312.547,351.967,299.643,361.236z M401.132,448.938
			l-23.06,21.106l-23.06-21.106l14.508-62.986h17.103L401.132,448.938z M358.433,352.131c0.644-0.12,1.291-0.229,1.937-0.338
			c0.473-0.079,0.944-0.157,1.417-0.23c0.809-0.127,1.62-0.248,2.431-0.357c1.071-0.143,2.142-0.273,3.214-0.387
			c0.489-0.053,0.98-0.102,1.47-0.149c1.306-0.122,2.611-0.228,3.917-0.306c0.293-0.018,0.586-0.03,0.879-0.046
			c0.899-0.047,1.798-0.07,2.696-0.096c0.559,0.014,1.115,0.043,1.677,0.043s1.118-0.029,1.677-0.043
			c0.899,0.026,1.797,0.049,2.696,0.096c0.294,0.016,0.586,0.028,0.88,0.046c1.306,0.078,2.611,0.184,3.917,0.306
			c0.49,0.046,0.98,0.096,1.47,0.149c1.072,0.114,2.143,0.243,3.213,0.386c0.812,0.11,1.623,0.231,2.433,0.358
			c0.472,0.073,0.944,0.151,1.415,0.23c0.646,0.109,1.293,0.218,1.937,0.338l-9.695,18.837h-19.887L358.433,352.131z
			 M380.115,335.231c-0.647-0.018-1.293-0.042-1.942-0.051c-0.068-0.001-0.137-0.001-0.205,0c-0.649,0.009-1.295,0.033-1.942,0.051
			c-21.797-0.833-40.254-14.899-47.545-34.381c-0.039-0.124-0.069-0.25-0.114-0.373c-0.801-2.176-1.454-4.391-1.958-6.636
			c-0.003-0.011-0.005-0.022-0.008-0.034c-0.142-0.635-0.267-1.274-0.385-1.913c-0.04-0.216-0.079-0.433-0.117-0.649
			c-0.089-0.518-0.169-1.039-0.242-1.559c-0.05-0.357-0.094-0.715-0.137-1.074c-0.051-0.428-0.102-0.857-0.142-1.287
			c-0.046-0.489-0.08-0.981-0.112-1.473c-0.022-0.327-0.049-0.653-0.065-0.981c-0.039-0.834-0.064-1.673-0.064-2.517
			c0-0.001,0-0.002,0-0.004v-18.598c33.792-2.111,53.68-18.032,63.498-28.999c6.909,10.788,20.284,25.772,42.368,28.714v18.882
			C431.005,310.852,408.358,334.152,380.115,335.231z"/>
	</g>
</g>
<g>
	<g>
		<path d="M399.673,59.516c-4.139,0-7.492,3.354-7.492,7.492c0,4.138,3.353,7.492,7.492,7.492c20.643,0,37.438,16.794,37.438,37.436
			s-16.795,37.436-37.438,37.436c-20.642,0-37.436-16.794-37.436-37.436c0-13.349,7.193-25.786,18.773-32.461
			c3.585-2.067,4.816-6.648,2.75-10.233c-2.067-3.585-6.648-4.815-10.232-2.749c-16.208,9.342-26.275,26.754-26.275,45.443
			c0,28.904,23.515,52.42,52.42,52.42c28.905,0,52.422-23.516,52.422-52.42C452.095,83.03,428.579,59.516,399.673,59.516z"/>
	</g>
</g>
<g>
	<g>
		<path d="M168.953,200.573c-4.138,0-7.492,3.354-7.492,7.492c0,4.138,3.354,7.492,7.492,7.492
			c34.168,0,61.967,27.798,61.967,61.967s-27.798,61.967-61.967,61.967c-34.168,0-61.967-27.798-61.967-61.967
			c0-26.02,16.431-49.446,40.887-58.291c3.891-1.407,5.905-5.702,4.497-9.594c-1.407-3.892-5.703-5.905-9.594-4.497
			c-30.37,10.984-50.776,40.073-50.776,72.382c0,42.43,34.52,76.95,76.951,76.95c42.43,0,76.95-34.52,76.95-76.95
			C245.903,235.093,211.383,200.573,168.953,200.573z"/>
	</g>
</g>
<g>
</g>
<g>
</g>
<g>
</g>
<g>
</g>
<g>
</g>
<g>
</g>
<g>
</g>
<g>
</g>
<g>
</g>
<g>
</g>
<g>
</g>
<g>
</g>
<g>
</g>
<g>
</g>
<g>
</g>
</svg>
