<?xml version="1.0" encoding="utf-8"?>
<!-- Generator: Adobe Illustrator 16.0.0, SVG Export Plug-In . SVG Version: 6.00 Build 0)  -->
<!DOCTYPE svg PUBLIC "-//W3C//DTD SVG 1.1//EN" "http://www.w3.org/Graphics/SVG/1.1/DTD/svg11.dtd">
<svg version="1.1" xmlns="http://www.w3.org/2000/svg" xmlns:xlink="http://www.w3.org/1999/xlink" x="0px" y="0px" width="240px"
	 height="36px" viewBox="0 0 240 36" enable-background="new 0 0 240 36" xml:space="preserve">
<g id="Ebene_2">
</g>
<g id="Ebene_1">
	<g>
		<path fill="#2EB6DF" d="M32.447,32.446c0.303-0.31,0.652-0.46,1.044-0.46c0.387,0,0.737,0.155,1.043,0.465
			c0.307,0.299,0.46,0.649,0.458,1.045c0.003,0.384-0.15,0.732-0.456,1.044c-0.308,0.301-0.657,0.456-1.042,0.456
			c-0.394,0-0.744-0.154-1.046-0.456c-0.312-0.312-0.461-0.66-0.461-1.046C31.986,33.1,32.136,32.75,32.447,32.446z M27.68,32.451
			c0.305-0.31,0.654-0.465,1.042-0.465c0.393,0,0.741,0.15,1.046,0.46c0.309,0.304,0.458,0.654,0.458,1.05
			c0,0.384-0.149,0.732-0.458,1.044c-0.305,0.301-0.654,0.456-1.043,0.456c-0.391,0-0.74-0.154-1.046-0.456
			c-0.308-0.312-0.457-0.66-0.457-1.046C27.222,33.1,27.371,32.75,27.68,32.451z M30.061,30.062
			c0.315-0.304,0.661-0.458,1.046-0.458c0.391,0,0.738,0.158,1.046,0.457c0.306,0.309,0.464,0.658,0.461,1.046
			c0.003,0.391-0.152,0.74-0.461,1.046c-0.304,0.305-0.655,0.465-1.046,0.465c-0.385,0-0.736-0.154-1.046-0.465
			c-0.304-0.304-0.459-0.651-0.459-1.046C29.602,30.718,29.757,30.37,30.061,30.062z M32.447,27.685
			c0.303-0.313,0.652-0.463,1.046-0.463c0.385,0,0.735,0.149,1.042,0.458c0.306,0.306,0.46,0.654,0.459,1.05
			c0,0.385-0.153,0.733-0.46,1.042c-0.306,0.306-0.656,0.456-1.041,0.456c-0.394,0-0.744-0.15-1.046-0.456
			c-0.312-0.309-0.461-0.657-0.461-1.042C31.986,28.334,32.137,27.985,32.447,27.685z M22.91,32.446
			c0.309-0.305,0.659-0.46,1.046-0.46c0.393,0,0.74,0.155,1.043,0.465c0.313,0.299,0.462,0.649,0.462,1.045
			c0,0.384-0.149,0.732-0.46,1.044c-0.304,0.301-0.652,0.456-1.045,0.459c-0.387-0.004-0.738-0.158-1.046-0.459
			c-0.304-0.312-0.457-0.66-0.457-1.044C22.455,33.1,22.606,32.75,22.91,32.446z M32.447,22.911
			c0.303-0.305,0.652-0.456,1.046-0.456c0.385,0,0.735,0.151,1.046,0.456c0.302,0.31,0.456,0.658,0.457,1.048
			c0,0.391-0.155,0.739-0.46,1.045c-0.308,0.309-0.657,0.458-1.042,0.458c-0.394,0-0.744-0.149-1.046-0.458
			c-0.312-0.306-0.461-0.654-0.461-1.045C31.986,23.569,32.136,23.221,32.447,22.911z M18.141,32.446
			c0.312-0.31,0.664-0.46,1.046-0.46c0.397,0,0.743,0.155,1.046,0.465c0.312,0.299,0.465,0.649,0.465,1.043
			c0,0.386-0.153,0.734-0.465,1.046c-0.303,0.301-0.648,0.456-1.046,0.459c-0.382-0.004-0.734-0.158-1.043-0.459
			c-0.304-0.312-0.455-0.66-0.459-1.044C17.686,33.1,17.839,32.75,18.141,32.446z M32.447,18.141
			c0.303-0.299,0.652-0.452,1.046-0.452c0.385,0,0.735,0.153,1.042,0.456c0.306,0.308,0.459,0.656,0.459,1.042
			c0,0.392-0.153,0.746-0.459,1.048c-0.308,0.31-0.657,0.463-1.046,0.463c-0.391,0-0.74-0.153-1.043-0.463
			c-0.312-0.301-0.461-0.649-0.461-1.044C31.986,18.8,32.136,18.453,32.447,18.141z M15.763,30.062
			c0.304-0.301,0.651-0.458,1.045-0.458c0.388,0,0.735,0.158,1.045,0.458c0.305,0.308,0.456,0.656,0.456,1.044
			c0,0.395-0.151,0.74-0.456,1.046c-0.31,0.311-0.657,0.465-1.045,0.465c-0.391,0-0.741-0.154-1.045-0.465
			c-0.312-0.304-0.46-0.655-0.46-1.046C15.303,30.718,15.451,30.37,15.763,30.062z M18.143,27.68
			c0.309-0.309,0.661-0.458,1.043-0.458c0.397,0,0.743,0.149,1.046,0.463c0.312,0.301,0.465,0.649,0.465,1.045
			c0,0.385-0.153,0.733-0.465,1.042c-0.302,0.306-0.647,0.456-1.046,0.456c-0.382,0-0.734-0.15-1.046-0.456
			c-0.301-0.309-0.455-0.657-0.457-1.042C17.688,28.334,17.841,27.985,18.143,27.68z M20.531,25.296
			c0.304-0.302,0.651-0.46,1.045-0.46c0.386,0,0.733,0.154,1.044,0.46c0.302,0.305,0.46,0.656,0.455,1.046
			c0.002,0.391-0.153,0.738-0.455,1.046c-0.308,0.303-0.657,0.462-1.044,0.462c-0.393,0-0.747-0.154-1.046-0.462
			c-0.312-0.308-0.465-0.659-0.465-1.046C20.066,25.952,20.223,25.601,20.531,25.296z M22.91,22.911
			c0.311-0.305,0.659-0.456,1.045-0.456c0.395,0,0.741,0.151,1.044,0.456c0.313,0.31,0.462,0.658,0.462,1.048
			c0,0.391-0.149,0.739-0.462,1.045c-0.302,0.309-0.65,0.458-1.043,0.458c-0.387,0-0.736-0.149-1.046-0.458
			c-0.304-0.306-0.455-0.654-0.457-1.045C22.454,23.569,22.606,23.221,22.91,22.911z M25.296,20.531
			c0.306-0.308,0.657-0.465,1.046-0.465c0.391,0,0.736,0.157,1.046,0.463c0.304,0.305,0.464,0.654,0.46,1.048
			c0,0.389-0.157,0.734-0.46,1.045c-0.31,0.305-0.657,0.461-1.046,0.461s-0.74-0.157-1.046-0.461
			c-0.308-0.312-0.463-0.659-0.465-1.045C24.833,21.183,24.99,20.834,25.296,20.531z M27.68,18.145
			c0.305-0.303,0.654-0.456,1.045-0.459c0.389,0.003,0.738,0.156,1.045,0.459c0.307,0.308,0.457,0.656,0.457,1.042
			c0,0.397-0.149,0.746-0.458,1.048c-0.305,0.31-0.654,0.463-1.043,0.463c-0.391,0-0.74-0.153-1.045-0.463
			c-0.309-0.302-0.458-0.649-0.46-1.044C27.22,18.8,27.371,18.453,27.68,18.145z M30.061,15.763c0.31-0.308,0.661-0.46,1.046-0.46
			c0.391,0,0.738,0.152,1.046,0.46c0.306,0.304,0.465,0.651,0.464,1.049c0,0.384-0.158,0.731-0.464,1.042
			c-0.308,0.304-0.655,0.461-1.046,0.461c-0.387,0-0.736-0.157-1.046-0.461c-0.304-0.311-0.459-0.656-0.462-1.042
			C29.602,16.414,29.757,16.067,30.061,15.763z M13.377,27.685c0.307-0.313,0.658-0.463,1.045-0.463
			c0.394,0,0.738,0.149,1.047,0.463c0.306,0.301,0.461,0.649,0.461,1.045c0.003,0.385-0.156,0.733-0.461,1.042
			c-0.309,0.306-0.653,0.456-1.047,0.456c-0.387,0-0.738-0.15-1.045-0.456c-0.306-0.309-0.458-0.657-0.462-1.042
			C12.915,28.334,13.071,27.985,13.377,27.685z M18.143,22.911c0.313-0.305,0.661-0.456,1.043-0.456
			c0.397,0,0.744,0.151,1.046,0.452c0.312,0.313,0.465,0.662,0.465,1.052c0,0.391-0.153,0.739-0.465,1.045
			c-0.302,0.309-0.647,0.458-1.043,0.458c-0.385,0-0.737-0.149-1.046-0.458c-0.304-0.306-0.455-0.654-0.458-1.045
			C17.688,23.569,17.842,23.221,18.143,22.911z M22.91,18.145c0.311-0.303,0.659-0.456,1.046-0.456c0.393,0,0.741,0.153,1.045,0.452
			c0.311,0.312,0.46,0.66,0.46,1.05c0,0.395-0.149,0.742-0.464,1.044c-0.3,0.31-0.648,0.463-1.042,0.463
			c-0.387,0-0.736-0.153-1.046-0.463c-0.304-0.302-0.457-0.651-0.457-1.044C22.454,18.8,22.606,18.453,22.91,18.145z M27.68,13.377
			c0.305-0.3,0.654-0.458,1.045-0.458c0.389,0,0.738,0.158,1.043,0.458c0.309,0.307,0.458,0.657,0.458,1.045
			c0,0.394-0.149,0.74-0.458,1.047c-0.334,0.332-0.704,0.48-1.108,0.439c-0.405-0.041-0.729-0.189-0.98-0.439
			c-0.25-0.25-0.397-0.578-0.442-0.98C27.197,14.083,27.344,13.71,27.68,13.377z M10.992,25.296c0.309-0.306,0.659-0.46,1.046-0.46
			c0.392,0,0.742,0.158,1.048,0.46c0.307,0.305,0.457,0.656,0.457,1.046c0,0.387-0.15,0.738-0.457,1.046s-0.656,0.462-1.048,0.462
			c-0.387,0-0.737-0.154-1.042-0.462c-0.308-0.307-0.458-0.659-0.458-1.046C10.537,25.952,10.688,25.601,10.992,25.296z
			 M15.762,20.529c0.304-0.306,0.652-0.463,1.044-0.463c0.389,0,0.737,0.157,1.047,0.463c0.304,0.305,0.455,0.654,0.455,1.048
			c0,0.386-0.151,0.734-0.456,1.045c-0.31,0.299-0.657,0.457-1.045,0.455c-0.391,0.002-0.741-0.15-1.045-0.455
			c-0.312-0.312-0.46-0.661-0.46-1.046C15.303,21.183,15.453,20.834,15.762,20.529z M20.528,15.763
			c0.302-0.312,0.656-0.46,1.048-0.46c0.387,0,0.733,0.148,1.044,0.46c0.302,0.304,0.46,0.651,0.455,1.046
			c0.002,0.387-0.153,0.734-0.457,1.045c-0.31,0.304-0.657,0.461-1.043,0.455c-0.393,0.006-0.742-0.151-1.045-0.455
			c-0.312-0.311-0.465-0.658-0.465-1.042C20.066,16.414,20.22,16.066,20.528,15.763z M25.296,10.99
			c0.301-0.303,0.657-0.453,1.046-0.453s0.736,0.15,1.046,0.459c0.304,0.305,0.46,0.654,0.459,1.045
			c0.001,0.389-0.155,0.738-0.459,1.045c-0.334,0.335-0.705,0.479-1.111,0.439c-0.4-0.044-0.732-0.188-0.981-0.439
			c-0.249-0.253-0.398-0.573-0.442-0.984C24.814,11.699,24.962,11.332,25.296,10.99z M8.611,22.911
			c0.306-0.305,0.654-0.456,1.047-0.456c0.387,0,0.736,0.151,1.045,0.456c0.303,0.31,0.46,0.658,0.46,1.048
			c0,0.391-0.158,0.739-0.46,1.045c-0.311,0.309-0.658,0.458-1.045,0.458c-0.393,0-0.741-0.149-1.047-0.458
			c-0.307-0.306-0.461-0.654-0.465-1.045C8.148,23.569,8.302,23.221,8.611,22.911z M13.377,18.145
			c0.307-0.303,0.657-0.456,1.045-0.456c0.394,0,0.743,0.153,1.047,0.452c0.306,0.312,0.465,0.66,0.461,1.05
			c0,0.395-0.156,0.743-0.461,1.044c-0.304,0.31-0.653,0.463-1.047,0.463c-0.387,0-0.738-0.153-1.045-0.463
			c-0.303-0.301-0.458-0.656-0.462-1.048C12.918,18.8,13.074,18.453,13.377,18.145z M18.141,13.378
			c0.315-0.308,0.664-0.459,1.046-0.459c0.398,0,0.744,0.158,1.046,0.458c0.312,0.307,0.465,0.657,0.465,1.045
			c0,0.394-0.153,0.74-0.465,1.047c-0.302,0.309-0.648,0.465-1.046,0.465c-0.382,0-0.734-0.156-1.043-0.465
			c-0.302-0.304-0.458-0.653-0.459-1.047C17.686,14.034,17.841,13.684,18.141,13.378z M22.91,8.611
			c0.311-0.301,0.659-0.461,1.046-0.461c0.393,0,0.741,0.16,1.043,0.461c0.313,0.306,0.462,0.654,0.462,1.047
			c0,0.387-0.149,0.738-0.462,1.045c-0.334,0.333-0.7,0.482-1.104,0.437c-0.409-0.038-0.734-0.187-0.985-0.437
			c-0.25-0.248-0.396-0.579-0.437-0.985C22.429,9.313,22.574,8.943,22.91,8.611z M6.226,20.531c0.312-0.308,0.659-0.465,1.045-0.465
			c0.396,0,0.743,0.157,1.045,0.465c0.31,0.303,0.462,0.652,0.462,1.046c0,0.386-0.152,0.734-0.462,1.045
			c-0.302,0.305-0.649,0.461-1.045,0.461c-0.386-0.007-0.733-0.157-1.045-0.461c-0.304-0.309-0.456-0.661-0.458-1.045
			C5.77,21.183,5.922,20.834,6.226,20.531z M10.995,15.763c0.306-0.308,0.655-0.46,1.042-0.46c0.392,0,0.742,0.148,1.048,0.46
			c0.307,0.304,0.457,0.651,0.457,1.049c0,0.386-0.15,0.731-0.457,1.042c-0.307,0.304-0.656,0.461-1.045,0.455
			c-0.391,0-0.74-0.151-1.046-0.455c-0.308-0.311-0.458-0.658-0.458-1.045C10.537,16.414,10.688,16.066,10.995,15.763z
			 M15.762,10.998c0.304-0.311,0.652-0.461,1.045-0.461c0.389,0,0.735,0.15,1.046,0.453c0.304,0.311,0.455,0.66,0.455,1.053
			c0,0.387-0.151,0.736-0.457,1.043c-0.308,0.307-0.656,0.461-1.043,0.461c-0.394-0.004-0.741-0.154-1.045-0.461
			c-0.312-0.307-0.46-0.656-0.46-1.043C15.303,11.65,15.453,11.301,15.762,10.998z M20.531,6.228
			c0.299-0.306,0.653-0.456,1.045-0.456c0.386,0,0.731,0.15,1.044,0.456c0.302,0.31,0.457,0.657,0.457,1.045
			c0.003,0.394-0.155,0.741-0.457,1.045c-0.334,0.335-0.707,0.481-1.11,0.444c-0.404-0.045-0.73-0.191-0.979-0.444
			c-0.251-0.252-0.398-0.576-0.444-0.982C20.05,6.934,20.196,6.565,20.531,6.228z M3.845,18.145
			c0.302-0.303,0.653-0.456,1.047-0.456c0.386,0,0.73,0.153,1.043,0.456c0.302,0.312,0.459,0.656,0.455,1.046
			c0,0.388-0.152,0.742-0.455,1.044c-0.313,0.31-0.661,0.463-1.046,0.463c-0.392,0-0.743-0.153-1.045-0.463
			c-0.31-0.301-0.462-0.656-0.462-1.044C3.383,18.8,3.535,18.453,3.845,18.145z M8.611,13.377c0.306-0.3,0.654-0.458,1.047-0.458
			c0.387,0,0.736,0.152,1.045,0.458c0.304,0.307,0.46,0.657,0.456,1.045c0.001,0.394-0.153,0.74-0.456,1.047
			c-0.309,0.304-0.658,0.462-1.045,0.462c-0.393,0-0.741-0.153-1.047-0.462c-0.31-0.307-0.461-0.655-0.463-1.047
			C8.15,14.034,8.306,13.684,8.611,13.377z M13.377,8.611c0.307-0.307,0.658-0.461,1.045-0.461c0.394,0,0.74,0.154,1.047,0.461
			c0.309,0.306,0.465,0.654,0.461,1.047c0,0.387-0.156,0.734-0.461,1.045c-0.307,0.306-0.655,0.462-1.047,0.462
			c-0.387,0-0.738-0.156-1.045-0.462c-0.306-0.311-0.462-0.658-0.462-1.045C12.915,9.265,13.074,8.917,13.377,8.611z M18.143,3.848
			c0.309-0.312,0.661-0.465,1.043-0.465c0.397,0,0.743,0.153,1.046,0.465c0.312,0.302,0.465,0.651,0.465,1.045
			c0,0.383-0.153,0.732-0.465,1.047c-0.332,0.332-0.7,0.48-1.107,0.432c-0.404-0.037-0.732-0.184-0.982-0.432
			c-0.25-0.253-0.397-0.582-0.437-0.989C17.66,4.545,17.809,4.18,18.143,3.848z M1.457,15.763c0.309-0.308,0.663-0.46,1.045-0.46
			c0.395,0,0.745,0.152,1.047,0.46c0.308,0.305,0.465,0.651,0.465,1.049c0,0.384-0.154,0.731-0.465,1.042
			c-0.302,0.304-0.652,0.461-1.047,0.461c-0.382-0.006-0.736-0.157-1.045-0.461C1.157,17.547,1,17.195,1,16.812
			C1,16.414,1.157,16.066,1.457,15.763z M6.226,10.996c0.312-0.309,0.659-0.459,1.042-0.459c0.398,0,0.746,0.15,1.049,0.453
			c0.308,0.311,0.46,0.66,0.46,1.053c0,0.387-0.148,0.736-0.46,1.043c-0.304,0.307-0.651,0.461-1.045,0.457
			c-0.388,0-0.735-0.15-1.047-0.457C5.922,12.779,5.77,12.43,5.77,12.043C5.77,11.65,5.922,11.301,6.226,10.996z M10.992,6.231
			c0.309-0.31,0.659-0.46,1.046-0.46c0.392,0,0.742,0.15,1.048,0.455c0.307,0.311,0.457,0.659,0.457,1.046
			c0,0.394-0.15,0.741-0.457,1.047c-0.307,0.31-0.656,0.458-1.048,0.458c-0.387,0-0.737-0.148-1.042-0.46
			c-0.308-0.304-0.458-0.651-0.458-1.045C10.537,6.885,10.688,6.537,10.992,6.231z M15.763,1.46C16.066,1.158,16.414,1,16.808,1
			c0.388,0,0.735,0.158,1.045,0.46c0.305,0.311,0.456,0.659,0.456,1.045c0,0.391-0.151,0.743-0.455,1.043
			c-0.335,0.339-0.707,0.48-1.107,0.441c-0.406-0.042-0.733-0.188-0.983-0.441c-0.25-0.25-0.396-0.576-0.443-0.98
			C15.281,2.165,15.428,1.797,15.763,1.46z M1.46,10.99c0.306-0.303,0.66-0.453,1.042-0.453c0.395,0,0.742,0.15,1.047,0.459
			c0.308,0.305,0.464,0.654,0.465,1.047c0,0.387-0.157,0.736-0.465,1.043c-0.302,0.307-0.652,0.457-1.047,0.461
			c-0.384,0-0.736-0.154-1.045-0.461C1.153,12.78,1,12.43,1,12.043C1,11.65,1.157,11.301,1.46,10.99z M3.845,8.611
			C4.147,8.31,4.496,8.15,4.89,8.15c0.388,0,0.735,0.16,1.046,0.461c0.302,0.306,0.455,0.654,0.455,1.047
			c0,0.391-0.152,0.734-0.455,1.045c-0.31,0.302-0.658,0.462-1.043,0.461c-0.395,0-0.746-0.155-1.047-0.461
			c-0.31-0.307-0.462-0.66-0.462-1.045C3.383,9.265,3.536,8.917,3.845,8.611z M6.226,6.228c0.312-0.306,0.659-0.456,1.042-0.456
			c0.398,0,0.746,0.15,1.047,0.456c0.31,0.31,0.462,0.657,0.462,1.045c0,0.394-0.148,0.741-0.462,1.045
			c-0.302,0.309-0.649,0.46-1.043,0.46c-0.388,0-0.735-0.148-1.047-0.46C5.922,8.014,5.77,7.666,5.77,7.27
			C5.77,6.885,5.922,6.537,6.226,6.228z M8.611,3.848c0.306-0.312,0.654-0.465,1.047-0.465c0.39,0,0.736,0.153,1.045,0.461
			c0.303,0.306,0.46,0.655,0.46,1.049c0,0.388-0.158,0.732-0.46,1.047c-0.309,0.303-0.658,0.456-1.045,0.456
			c-0.393,0-0.741-0.153-1.047-0.456c-0.31-0.313-0.463-0.664-0.465-1.047C8.148,4.499,8.304,4.149,8.611,3.848z M10.995,1.46
			C11.301,1.158,11.65,1,12.041,1c0.389,0,0.738,0.158,1.045,0.46c0.307,0.311,0.457,0.659,0.457,1.042
			c0,0.395-0.15,0.745-0.457,1.047c-0.307,0.312-0.656,0.465-1.048,0.465c-0.387,0-0.737-0.153-1.042-0.465
			c-0.308-0.3-0.458-0.648-0.458-1.043C10.537,2.12,10.688,1.771,10.995,1.46z"/>
	</g>
	<g>
		<path fill="#434343" d="M53.723,30.346c-0.352,0-0.583-0.165-0.693-0.495l-0.22-1.089c-0.235,0.264-0.48,0.502-0.737,0.715
			c-0.257,0.213-0.534,0.396-0.831,0.55c-0.297,0.154-0.616,0.273-0.957,0.357c-0.341,0.084-0.709,0.126-1.105,0.126
			c-0.616,0-1.181-0.128-1.694-0.385c-0.514-0.256-0.956-0.628-1.326-1.116c-0.371-0.488-0.656-1.091-0.858-1.81
			C45.101,26.481,45,25.66,45,24.736c0-0.836,0.114-1.613,0.341-2.332c0.227-0.719,0.553-1.342,0.979-1.87
			c0.425-0.528,0.935-0.94,1.529-1.237c0.594-0.297,1.261-0.446,2.002-0.446c0.631,0,1.169,0.101,1.617,0.303
			c0.447,0.202,0.847,0.471,1.199,0.809V14h2.717v16.346H53.723z M50.104,28.354c0.565,0,1.045-0.117,1.441-0.352
			c0.396-0.235,0.77-0.568,1.122-1.001v-5.06c-0.308-0.374-0.644-0.638-1.006-0.792c-0.363-0.154-0.753-0.231-1.171-0.231
			c-0.411,0-0.783,0.077-1.117,0.231c-0.333,0.154-0.616,0.387-0.847,0.698c-0.231,0.312-0.409,0.708-0.533,1.188
			c-0.125,0.48-0.187,1.047-0.187,1.7c0,0.66,0.053,1.219,0.16,1.677c0.106,0.458,0.258,0.833,0.456,1.122
			c0.198,0.29,0.44,0.499,0.726,0.627C49.433,28.291,49.752,28.354,50.104,28.354z"/>
		<path fill="#434343" d="M63.206,18.884c0.711,0,1.366,0.114,1.963,0.341c0.598,0.228,1.113,0.56,1.545,0.996
			c0.433,0.437,0.77,0.972,1.012,1.606c0.242,0.634,0.363,1.358,0.363,2.172c0,0.206-0.009,0.376-0.027,0.512
			c-0.019,0.136-0.052,0.242-0.099,0.319c-0.048,0.077-0.112,0.132-0.192,0.165c-0.081,0.033-0.184,0.05-0.308,0.05h-6.974
			c0.081,1.159,0.392,2.009,0.935,2.552c0.542,0.543,1.261,0.814,2.156,0.814c0.44,0,0.819-0.051,1.138-0.154
			s0.598-0.216,0.836-0.341c0.238-0.125,0.447-0.238,0.627-0.341s0.354-0.154,0.522-0.154c0.11,0,0.206,0.022,0.286,0.066
			s0.15,0.106,0.209,0.187l0.792,0.99c-0.301,0.352-0.638,0.647-1.012,0.886s-0.765,0.429-1.172,0.572
			c-0.407,0.143-0.821,0.244-1.243,0.303c-0.422,0.059-0.831,0.088-1.227,0.088c-0.785,0-1.515-0.13-2.189-0.391
			c-0.675-0.26-1.261-0.645-1.76-1.155c-0.499-0.51-0.891-1.14-1.177-1.892c-0.286-0.751-0.429-1.623-0.429-2.612
			c0-0.77,0.125-1.494,0.374-2.173c0.25-0.678,0.607-1.269,1.073-1.771c0.465-0.502,1.034-0.9,1.705-1.193
			C61.605,19.03,62.362,18.884,63.206,18.884z M63.26,20.831c-0.792,0-1.412,0.224-1.859,0.671
			c-0.447,0.448-0.733,1.082-0.858,1.903h5.104c0-0.352-0.048-0.684-0.143-0.996c-0.095-0.312-0.242-0.584-0.44-0.819
			c-0.198-0.235-0.447-0.42-0.748-0.556S63.664,20.831,63.26,20.831z"/>
		<path fill="#434343" d="M77.219,21.26c-0.073,0.117-0.15,0.2-0.231,0.248s-0.183,0.071-0.308,0.071
			c-0.132,0-0.273-0.037-0.423-0.11s-0.325-0.156-0.522-0.248c-0.198-0.092-0.423-0.174-0.677-0.248
			c-0.253-0.073-0.552-0.11-0.896-0.11c-0.535,0-0.957,0.114-1.265,0.341c-0.308,0.228-0.462,0.524-0.462,0.891
			c0,0.242,0.079,0.445,0.236,0.61s0.367,0.31,0.627,0.435c0.26,0.125,0.556,0.237,0.886,0.335c0.33,0.099,0.667,0.208,1.012,0.325
			s0.682,0.251,1.012,0.401s0.625,0.341,0.885,0.572c0.26,0.231,0.469,0.508,0.627,0.83c0.158,0.323,0.237,0.711,0.237,1.166
			c0,0.543-0.099,1.043-0.297,1.501c-0.198,0.458-0.488,0.854-0.869,1.188c-0.381,0.334-0.853,0.594-1.414,0.781
			s-1.205,0.28-1.931,0.28c-0.389,0-0.768-0.035-1.139-0.104c-0.37-0.069-0.726-0.167-1.067-0.292
			c-0.341-0.125-0.656-0.271-0.946-0.44c-0.29-0.168-0.544-0.352-0.765-0.55l0.627-1.034c0.081-0.125,0.176-0.22,0.286-0.286
			c0.11-0.066,0.249-0.099,0.418-0.099c0.168,0,0.328,0.048,0.479,0.143s0.325,0.198,0.522,0.308
			c0.198,0.11,0.431,0.213,0.699,0.308c0.268,0.096,0.606,0.143,1.017,0.143c0.323,0,0.6-0.039,0.831-0.115
			c0.231-0.077,0.422-0.178,0.572-0.303c0.15-0.125,0.26-0.27,0.33-0.435c0.069-0.165,0.104-0.335,0.104-0.511
			c0-0.264-0.079-0.48-0.237-0.649c-0.158-0.168-0.367-0.315-0.627-0.44c-0.26-0.125-0.557-0.236-0.891-0.335
			c-0.333-0.099-0.675-0.207-1.023-0.324s-0.689-0.255-1.023-0.413s-0.631-0.357-0.891-0.6s-0.469-0.539-0.627-0.891
			s-0.236-0.777-0.236-1.276c0-0.462,0.092-0.902,0.275-1.32s0.453-0.783,0.809-1.095c0.355-0.312,0.799-0.561,1.331-0.748
			s1.146-0.28,1.842-0.28c0.777,0,1.485,0.128,2.123,0.385c0.638,0.257,1.17,0.594,1.595,1.012L77.219,21.26z"/>
		<path fill="#434343" d="M83.654,15.771c0,0.235-0.048,0.455-0.143,0.66c-0.095,0.206-0.222,0.385-0.379,0.539
			s-0.343,0.277-0.556,0.369c-0.212,0.092-0.44,0.137-0.682,0.137c-0.235,0-0.457-0.045-0.666-0.137s-0.391-0.215-0.544-0.369
			c-0.154-0.154-0.277-0.333-0.369-0.539c-0.092-0.205-0.138-0.425-0.138-0.66c0-0.242,0.046-0.469,0.138-0.682
			c0.091-0.213,0.214-0.396,0.369-0.55c0.154-0.154,0.335-0.276,0.544-0.368s0.431-0.138,0.666-0.138
			c0.242,0,0.469,0.046,0.682,0.138c0.213,0.092,0.398,0.214,0.556,0.368c0.158,0.154,0.284,0.337,0.379,0.55
			C83.606,15.301,83.654,15.529,83.654,15.771z M83.247,19.06v11.286H80.53V19.06H83.247z"/>
		<path fill="#434343" d="M90.44,18.862c0.484,0,0.938,0.049,1.364,0.148c0.425,0.099,0.814,0.244,1.166,0.435h3.245v1.012
			c0,0.169-0.044,0.301-0.132,0.396c-0.088,0.096-0.238,0.162-0.451,0.198l-1.012,0.187c0.073,0.191,0.13,0.392,0.17,0.605
			c0.04,0.213,0.061,0.437,0.061,0.671c0,0.558-0.112,1.062-0.335,1.513c-0.224,0.451-0.532,0.834-0.924,1.149
			c-0.392,0.315-0.858,0.559-1.397,0.731s-1.124,0.258-1.754,0.258c-0.425,0-0.84-0.04-1.243-0.121
			c-0.352,0.214-0.528,0.454-0.528,0.72c0,0.229,0.104,0.397,0.313,0.504s0.484,0.183,0.825,0.227
			c0.341,0.044,0.728,0.066,1.16,0.066s0.876,0.019,1.331,0.055c0.455,0.037,0.898,0.102,1.331,0.193s0.82,0.237,1.161,0.436
			s0.616,0.469,0.825,0.811c0.209,0.342,0.313,0.782,0.313,1.319c0,0.5-0.123,0.986-0.369,1.457s-0.602,0.89-1.067,1.258
			c-0.466,0.368-1.036,0.664-1.71,0.888c-0.675,0.225-1.445,0.337-2.31,0.337c-0.858,0-1.603-0.083-2.233-0.248
			c-0.631-0.165-1.153-0.385-1.568-0.66c-0.414-0.275-0.724-0.592-0.929-0.952c-0.206-0.359-0.308-0.733-0.308-1.122
			c0-0.528,0.161-0.972,0.484-1.331c0.323-0.359,0.77-0.646,1.342-0.858c-0.279-0.154-0.502-0.359-0.671-0.616
			c-0.168-0.257-0.253-0.59-0.253-1.001c0-0.168,0.029-0.343,0.088-0.522s0.149-0.357,0.27-0.534c0.121-0.176,0.273-0.343,0.457-0.5
			s0.4-0.299,0.649-0.423c-0.572-0.308-1.021-0.719-1.347-1.232c-0.327-0.513-0.49-1.115-0.49-1.804
			c0-0.557,0.112-1.062,0.335-1.513c0.224-0.451,0.535-0.836,0.935-1.155s0.873-0.563,1.419-0.731
			C89.199,18.946,89.795,18.862,90.44,18.862z M93.421,30.819c0-0.225-0.066-0.408-0.198-0.55c-0.132-0.143-0.312-0.253-0.539-0.332
			c-0.228-0.079-0.493-0.137-0.797-0.174c-0.305-0.037-0.627-0.056-0.968-0.056s-0.693,0-1.056,0c-0.363,0-0.713-0.04-1.05-0.121
			c-0.308,0.168-0.556,0.368-0.743,0.599s-0.28,0.497-0.28,0.798c0,0.198,0.049,0.383,0.148,0.555s0.257,0.321,0.473,0.446
			c0.216,0.125,0.497,0.222,0.841,0.292c0.345,0.069,0.766,0.104,1.265,0.104c0.506,0,0.942-0.04,1.309-0.118
			c0.366-0.079,0.669-0.187,0.907-0.326s0.413-0.303,0.522-0.494C93.367,31.252,93.421,31.044,93.421,30.819z M90.44,24.428
			c0.337,0,0.631-0.046,0.88-0.138c0.25-0.091,0.457-0.218,0.622-0.379c0.165-0.161,0.29-0.355,0.374-0.583
			c0.084-0.227,0.126-0.477,0.126-0.748c0-0.557-0.167-0.999-0.5-1.325s-0.834-0.49-1.501-0.49s-1.168,0.164-1.501,0.49
			c-0.334,0.326-0.5,0.768-0.5,1.325c0,0.264,0.042,0.51,0.126,0.737c0.084,0.227,0.209,0.423,0.374,0.588s0.374,0.293,0.627,0.385
			C89.819,24.382,90.11,24.428,90.44,24.428z"/>
		<path fill="#434343" d="M98.141,30.346V19.06h1.661c0.352,0,0.583,0.165,0.693,0.495l0.187,0.891
			c0.227-0.235,0.467-0.447,0.72-0.638c0.253-0.19,0.521-0.355,0.803-0.495c0.282-0.139,0.584-0.246,0.907-0.319
			s0.675-0.11,1.056-0.11c0.616,0,1.162,0.104,1.639,0.313c0.477,0.209,0.875,0.502,1.193,0.88c0.319,0.378,0.561,0.829,0.726,1.353
			s0.248,1.102,0.248,1.732v7.183h-2.717v-7.183c0-0.689-0.159-1.223-0.479-1.601c-0.319-0.377-0.797-0.566-1.436-0.566
			c-0.469,0-0.909,0.106-1.32,0.319c-0.411,0.212-0.799,0.502-1.166,0.869v8.162H98.141z"/>
		<path fill="#434343" d="M115.531,18.884c0.711,0,1.366,0.114,1.963,0.341c0.598,0.228,1.113,0.56,1.545,0.996
			c0.433,0.437,0.77,0.972,1.012,1.606c0.242,0.634,0.363,1.358,0.363,2.172c0,0.206-0.009,0.376-0.027,0.512
			c-0.019,0.136-0.052,0.242-0.099,0.319c-0.048,0.077-0.112,0.132-0.192,0.165c-0.081,0.033-0.184,0.05-0.308,0.05h-6.974
			c0.081,1.159,0.392,2.009,0.935,2.552c0.542,0.543,1.261,0.814,2.156,0.814c0.44,0,0.819-0.051,1.138-0.154
			s0.598-0.216,0.836-0.341c0.238-0.125,0.447-0.238,0.627-0.341s0.354-0.154,0.522-0.154c0.11,0,0.206,0.022,0.286,0.066
			s0.15,0.106,0.209,0.187l0.792,0.99c-0.301,0.352-0.638,0.647-1.012,0.886s-0.765,0.429-1.172,0.572
			c-0.407,0.143-0.821,0.244-1.243,0.303c-0.422,0.059-0.831,0.088-1.227,0.088c-0.785,0-1.515-0.13-2.189-0.391
			c-0.675-0.26-1.261-0.645-1.76-1.155c-0.499-0.51-0.891-1.14-1.177-1.892c-0.286-0.751-0.429-1.623-0.429-2.612
			c0-0.77,0.125-1.494,0.374-2.173c0.25-0.678,0.607-1.269,1.073-1.771c0.465-0.502,1.034-0.9,1.705-1.193
			C113.931,19.03,114.688,18.884,115.531,18.884z M115.586,20.831c-0.792,0-1.412,0.224-1.859,0.671
			c-0.447,0.448-0.733,1.082-0.858,1.903h5.104c0-0.352-0.048-0.684-0.143-0.996c-0.095-0.312-0.242-0.584-0.44-0.819
			c-0.198-0.235-0.447-0.42-0.748-0.556S115.989,20.831,115.586,20.831z"/>
		<path fill="#434343" d="M122.846,30.346V19.06h1.661c0.352,0,0.583,0.165,0.693,0.495l0.187,0.891
			c0.227-0.235,0.467-0.447,0.72-0.638c0.253-0.19,0.521-0.355,0.803-0.495c0.282-0.139,0.584-0.246,0.907-0.319
			s0.675-0.11,1.056-0.11c0.616,0,1.162,0.104,1.639,0.313c0.477,0.209,0.875,0.502,1.193,0.88c0.319,0.378,0.561,0.829,0.726,1.353
			s0.248,1.102,0.248,1.732v7.183h-2.717v-7.183c0-0.689-0.159-1.223-0.479-1.601c-0.319-0.377-0.797-0.566-1.436-0.566
			c-0.469,0-0.909,0.106-1.32,0.319c-0.411,0.212-0.799,0.502-1.166,0.869v8.162H122.846z"/>
		<path fill="#434343" d="M137.905,14.143v16.203h-1.958V14.143H137.905z"/>
		<path fill="#434343" d="M149.763,30.346h-0.869c-0.191,0-0.345-0.029-0.462-0.088s-0.194-0.183-0.231-0.374l-0.22-1.034
			c-0.293,0.264-0.579,0.5-0.858,0.709s-0.572,0.385-0.88,0.528c-0.308,0.143-0.636,0.251-0.984,0.324
			c-0.349,0.073-0.735,0.11-1.161,0.11c-0.433,0-0.838-0.061-1.215-0.182c-0.378-0.122-0.706-0.304-0.985-0.546
			c-0.279-0.243-0.5-0.55-0.666-0.922c-0.165-0.372-0.247-0.812-0.247-1.319c0-0.441,0.121-0.867,0.363-1.275
			s0.632-0.771,1.171-1.087s1.245-0.576,2.118-0.778c0.873-0.202,1.939-0.303,3.201-0.303v-0.875c0-0.871-0.186-1.529-0.556-1.976
			c-0.371-0.446-0.918-0.669-1.645-0.669c-0.477,0-0.878,0.061-1.205,0.181c-0.326,0.121-0.609,0.257-0.847,0.407
			s-0.443,0.286-0.616,0.407c-0.172,0.121-0.343,0.182-0.512,0.182c-0.132,0-0.248-0.035-0.346-0.104
			c-0.099-0.069-0.178-0.156-0.237-0.258l-0.352-0.627c0.616-0.594,1.28-1.038,1.991-1.331s1.5-0.44,2.365-0.44
			c0.623,0,1.177,0.103,1.661,0.308c0.484,0.206,0.891,0.492,1.221,0.858s0.579,0.81,0.748,1.331
			c0.168,0.521,0.253,1.093,0.253,1.716V30.346z M144.681,29.146c0.345,0,0.66-0.035,0.946-0.104
			c0.286-0.069,0.556-0.168,0.809-0.297c0.253-0.128,0.495-0.284,0.726-0.467s0.457-0.393,0.677-0.627v-2.299
			c-0.902,0-1.668,0.058-2.299,0.172s-1.144,0.264-1.54,0.448c-0.396,0.185-0.684,0.402-0.863,0.653
			c-0.18,0.251-0.27,0.531-0.27,0.841c0,0.295,0.047,0.55,0.143,0.764c0.095,0.214,0.224,0.389,0.385,0.525
			c0.161,0.137,0.352,0.236,0.572,0.299C144.186,29.115,144.424,29.146,144.681,29.146z"/>
		<path fill="#434343" d="M159.332,21.04c-0.088,0.162-0.224,0.242-0.407,0.242c-0.11,0-0.235-0.04-0.374-0.121
			c-0.14-0.081-0.31-0.17-0.512-0.27s-0.442-0.19-0.72-0.275c-0.279-0.084-0.609-0.126-0.99-0.126c-0.33,0-0.627,0.042-0.891,0.126
			c-0.264,0.084-0.489,0.2-0.676,0.347c-0.187,0.146-0.33,0.317-0.429,0.511c-0.099,0.194-0.148,0.405-0.148,0.633
			c0,0.286,0.083,0.524,0.248,0.715s0.383,0.355,0.655,0.495c0.271,0.139,0.579,0.262,0.924,0.368
			c0.345,0.106,0.698,0.22,1.062,0.341c0.363,0.121,0.717,0.255,1.062,0.401c0.345,0.147,0.652,0.33,0.924,0.55
			c0.271,0.22,0.49,0.49,0.655,0.809c0.165,0.319,0.247,0.702,0.247,1.149c0,0.514-0.092,0.988-0.275,1.425
			c-0.183,0.436-0.455,0.814-0.814,1.133s-0.799,0.57-1.32,0.753c-0.521,0.183-1.122,0.275-1.804,0.275
			c-0.777,0-1.481-0.126-2.112-0.379c-0.631-0.253-1.166-0.577-1.606-0.973l0.462-0.748c0.059-0.095,0.128-0.169,0.209-0.22
			s0.187-0.077,0.319-0.077c0.132,0,0.271,0.052,0.418,0.154c0.147,0.103,0.325,0.216,0.534,0.341
			c0.209,0.125,0.462,0.238,0.759,0.341c0.297,0.103,0.669,0.154,1.117,0.154c0.381,0,0.715-0.05,1.001-0.148
			c0.286-0.099,0.524-0.233,0.715-0.402c0.191-0.168,0.332-0.363,0.424-0.583c0.091-0.22,0.137-0.455,0.137-0.704
			c0-0.308-0.083-0.563-0.248-0.765s-0.383-0.374-0.654-0.517c-0.271-0.143-0.582-0.268-0.93-0.374
			c-0.348-0.106-0.704-0.218-1.067-0.335c-0.363-0.117-0.719-0.251-1.067-0.401c-0.349-0.15-0.658-0.339-0.93-0.566
			c-0.271-0.228-0.489-0.508-0.654-0.842c-0.165-0.333-0.248-0.739-0.248-1.215c0-0.425,0.088-0.834,0.264-1.227
			c0.176-0.392,0.433-0.737,0.77-1.034c0.337-0.297,0.751-0.533,1.243-0.709c0.491-0.176,1.052-0.264,1.683-0.264
			c0.733,0,1.392,0.115,1.975,0.346s1.087,0.548,1.512,0.952L159.332,21.04z"/>
		<path fill="#434343" d="M169.1,21.04c-0.088,0.162-0.224,0.242-0.407,0.242c-0.11,0-0.235-0.04-0.374-0.121
			c-0.14-0.081-0.31-0.17-0.512-0.27s-0.442-0.19-0.72-0.275c-0.279-0.084-0.609-0.126-0.99-0.126c-0.33,0-0.627,0.042-0.891,0.126
			c-0.264,0.084-0.489,0.2-0.676,0.347c-0.187,0.146-0.33,0.317-0.429,0.511c-0.099,0.194-0.148,0.405-0.148,0.633
			c0,0.286,0.083,0.524,0.248,0.715s0.383,0.355,0.655,0.495c0.271,0.139,0.579,0.262,0.924,0.368
			c0.345,0.106,0.698,0.22,1.062,0.341c0.363,0.121,0.717,0.255,1.062,0.401c0.345,0.147,0.652,0.33,0.924,0.55
			c0.271,0.22,0.49,0.49,0.655,0.809c0.165,0.319,0.247,0.702,0.247,1.149c0,0.514-0.092,0.988-0.275,1.425
			c-0.183,0.436-0.455,0.814-0.814,1.133s-0.799,0.57-1.32,0.753c-0.521,0.183-1.122,0.275-1.804,0.275
			c-0.777,0-1.481-0.126-2.112-0.379c-0.631-0.253-1.166-0.577-1.606-0.973l0.462-0.748c0.059-0.095,0.128-0.169,0.209-0.22
			s0.187-0.077,0.319-0.077c0.132,0,0.271,0.052,0.418,0.154c0.147,0.103,0.325,0.216,0.534,0.341
			c0.209,0.125,0.462,0.238,0.759,0.341c0.297,0.103,0.669,0.154,1.117,0.154c0.381,0,0.715-0.05,1.001-0.148
			c0.286-0.099,0.524-0.233,0.715-0.402c0.191-0.168,0.332-0.363,0.424-0.583c0.091-0.22,0.137-0.455,0.137-0.704
			c0-0.308-0.083-0.563-0.248-0.765s-0.383-0.374-0.654-0.517c-0.271-0.143-0.582-0.268-0.93-0.374
			c-0.348-0.106-0.704-0.218-1.067-0.335c-0.363-0.117-0.719-0.251-1.067-0.401c-0.349-0.15-0.658-0.339-0.93-0.566
			c-0.271-0.228-0.489-0.508-0.654-0.842c-0.165-0.333-0.248-0.739-0.248-1.215c0-0.425,0.088-0.834,0.264-1.227
			c0.176-0.392,0.433-0.737,0.77-1.034c0.337-0.297,0.751-0.533,1.243-0.709c0.491-0.176,1.052-0.264,1.683-0.264
			c0.733,0,1.392,0.115,1.975,0.346s1.087,0.548,1.512,0.952L169.1,21.04z"/>
		<path fill="#434343" d="M176.899,19.027c0.667,0,1.283,0.112,1.848,0.335c0.564,0.224,1.052,0.546,1.463,0.968
			c0.411,0.422,0.731,0.942,0.962,1.562c0.231,0.62,0.347,1.326,0.347,2.118c0,0.308-0.033,0.513-0.099,0.616
			c-0.066,0.103-0.191,0.154-0.374,0.154h-7.414c0.015,0.704,0.11,1.316,0.286,1.837c0.176,0.521,0.418,0.955,0.726,1.304
			c0.308,0.348,0.674,0.608,1.1,0.781s0.902,0.258,1.43,0.258c0.491,0,0.915-0.057,1.271-0.17c0.355-0.113,0.662-0.236,0.918-0.368
			c0.257-0.132,0.471-0.255,0.644-0.369s0.321-0.17,0.445-0.17c0.162,0,0.286,0.063,0.374,0.187l0.55,0.715
			c-0.242,0.293-0.532,0.548-0.869,0.765s-0.699,0.394-1.083,0.533c-0.385,0.14-0.783,0.244-1.193,0.313
			c-0.411,0.07-0.818,0.104-1.221,0.104c-0.77,0-1.479-0.13-2.128-0.39s-1.21-0.642-1.683-1.144s-0.841-1.124-1.105-1.865
			s-0.396-1.591-0.396-2.552c0-0.777,0.119-1.503,0.357-2.178c0.238-0.674,0.581-1.259,1.029-1.754
			c0.447-0.495,0.994-0.884,1.639-1.166C175.366,19.168,176.092,19.027,176.899,19.027z M176.943,20.468
			c-0.946,0-1.69,0.273-2.233,0.819c-0.543,0.546-0.88,1.304-1.012,2.271h6.061c0-0.455-0.063-0.871-0.187-1.249
			c-0.125-0.377-0.308-0.704-0.55-0.979c-0.242-0.275-0.538-0.487-0.886-0.638S177.39,20.468,176.943,20.468z"/>
		<path fill="#434343" d="M184.236,30.346V19.203h1.166c0.279,0,0.455,0.136,0.528,0.407l0.154,1.21
			c0.484-0.535,1.024-0.968,1.623-1.298c0.598-0.33,1.289-0.495,2.073-0.495c0.609,0,1.146,0.101,1.612,0.302
			c0.465,0.202,0.854,0.488,1.166,0.858c0.312,0.371,0.548,0.816,0.709,1.337c0.161,0.521,0.242,1.096,0.242,1.727v7.095h-1.958
			V23.25c0-0.843-0.192-1.498-0.578-1.963c-0.385-0.465-0.973-0.698-1.765-0.698c-0.58,0-1.121,0.139-1.623,0.418
			c-0.502,0.279-0.966,0.656-1.392,1.133v8.206H184.236z"/>
		<path fill="#434343" d="M196.049,29.136c0-0.19,0.035-0.37,0.104-0.539c0.07-0.168,0.165-0.315,0.286-0.44
			s0.266-0.224,0.435-0.297c0.168-0.073,0.348-0.11,0.539-0.11c0.19,0,0.37,0.037,0.539,0.11c0.168,0.073,0.315,0.172,0.44,0.297
			c0.125,0.125,0.222,0.271,0.292,0.44c0.069,0.169,0.104,0.349,0.104,0.539c0,0.198-0.035,0.379-0.104,0.544
			c-0.07,0.165-0.167,0.31-0.292,0.435c-0.125,0.125-0.271,0.222-0.44,0.292c-0.169,0.069-0.349,0.104-0.539,0.104
			c-0.191,0-0.371-0.035-0.539-0.104c-0.169-0.07-0.313-0.167-0.435-0.292s-0.216-0.27-0.286-0.435
			C196.084,29.515,196.049,29.333,196.049,29.136z"/>
		<path fill="#434343" d="M209.415,30.346c-0.279,0-0.455-0.136-0.528-0.407l-0.176-1.353c-0.477,0.579-1.021,1.043-1.634,1.391
			c-0.612,0.349-1.314,0.522-2.106,0.522c-0.638,0-1.217-0.123-1.738-0.368c-0.521-0.246-0.964-0.607-1.331-1.083
			s-0.649-1.071-0.847-1.782c-0.198-0.711-0.297-1.529-0.297-2.453c0-0.821,0.11-1.585,0.33-2.293
			c0.22-0.708,0.537-1.322,0.952-1.842c0.414-0.521,0.918-0.93,1.512-1.227c0.594-0.297,1.269-0.445,2.024-0.445
			c0.682,0,1.265,0.115,1.749,0.346s0.917,0.556,1.298,0.974v-6.182h1.958v16.203H209.415z M205.619,28.916
			c0.638,0,1.197-0.146,1.678-0.44c0.48-0.293,0.922-0.708,1.326-1.243v-5.39c-0.359-0.484-0.754-0.823-1.183-1.018
			c-0.429-0.194-0.904-0.292-1.425-0.292c-1.041,0-1.841,0.371-2.398,1.111c-0.557,0.741-0.836,1.797-0.836,3.168
			c0,0.726,0.063,1.348,0.187,1.865s0.308,0.942,0.55,1.276c0.242,0.334,0.539,0.578,0.891,0.731
			C204.761,28.839,205.165,28.916,205.619,28.916z"/>
		<path fill="#434343" d="M218.5,19.027c0.667,0,1.283,0.112,1.848,0.335c0.564,0.224,1.052,0.546,1.463,0.968
			c0.411,0.422,0.731,0.942,0.962,1.562c0.231,0.62,0.347,1.326,0.347,2.118c0,0.308-0.033,0.513-0.099,0.616
			c-0.066,0.103-0.191,0.154-0.374,0.154h-7.414c0.015,0.704,0.11,1.316,0.286,1.837c0.176,0.521,0.418,0.955,0.726,1.304
			c0.308,0.348,0.674,0.608,1.1,0.781s0.902,0.258,1.43,0.258c0.491,0,0.915-0.057,1.271-0.17c0.355-0.113,0.662-0.236,0.918-0.368
			c0.257-0.132,0.471-0.255,0.644-0.369s0.321-0.17,0.445-0.17c0.162,0,0.286,0.063,0.374,0.187l0.55,0.715
			c-0.242,0.293-0.532,0.548-0.869,0.765s-0.699,0.394-1.083,0.533c-0.385,0.14-0.783,0.244-1.193,0.313
			c-0.411,0.07-0.818,0.104-1.221,0.104c-0.77,0-1.479-0.13-2.128-0.39s-1.21-0.642-1.683-1.144s-0.841-1.124-1.105-1.865
			s-0.396-1.591-0.396-2.552c0-0.777,0.119-1.503,0.357-2.178c0.238-0.674,0.581-1.259,1.029-1.754
			c0.447-0.495,0.994-0.884,1.639-1.166C216.967,19.168,217.693,19.027,218.5,19.027z M218.544,20.468
			c-0.946,0-1.69,0.273-2.233,0.819c-0.543,0.546-0.88,1.304-1.012,2.271h6.061c0-0.455-0.063-0.871-0.187-1.249
			c-0.125-0.377-0.308-0.704-0.55-0.979c-0.242-0.275-0.538-0.487-0.886-0.638S218.991,20.468,218.544,20.468z"/>
	</g>
</g>
</svg>
